<svg version="1.1" id="Layer_1" xmlns="http://www.w3.org/2000/svg" xmlns:xlink="http://www.w3.org/1999/xlink" x="0px" y="0px"
	 width="100%" viewBox="0 0 1024 1024" enable-background="new 0 0 1024 1024" xml:space="preserve">
<path fill="#000000" opacity="1.000000" stroke="none" 
	d="
M570.822266,120.098831 
	C598.324341,139.200241 614.304565,165.199921 616.927124,198.077423 
	C619.946289,235.928787 606.196167,267.487305 575.702515,290.562500 
	C513.076904,337.952759 422.453613,301.319580 409.859314,223.831802 
	C400.598755,166.855072 440.359985,111.986031 497.018005,103.899803 
	C523.409424,100.133224 547.964172,105.634956 570.822266,120.098831 
M510.260040,174.232132 
	C510.202209,193.376984 510.140656,212.521820 510.091858,231.666702 
	C510.086456,233.791855 510.297546,235.805679 513.221802,235.659760 
	C515.876038,235.527328 515.871887,233.540054 515.875854,231.694687 
	C515.915649,213.211868 515.958008,194.728912 515.910156,176.246216 
	C515.899719,172.231918 514.076965,171.030136 510.260040,174.232132 
z"/>
<path fill="#000000" opacity="1.000000" stroke="none" 
	d="
M135.290680,588.721375 
	C113.428123,567.366882 102.456711,541.575500 102.850403,511.500580 
	C103.555756,457.618134 144.033173,415.533752 193.928818,409.562744 
	C249.621460,402.898010 299.746155,438.833710 309.786469,494.046631 
	C321.169556,556.643677 277.069885,609.311096 221.017792,616.344727 
	C188.329880,620.446533 159.841934,611.185852 135.290680,588.721375 
M193.537277,487.909302 
	C206.762833,479.525330 219.880676,481.627686 229.516800,493.843140 
	C231.512802,496.373474 233.594177,495.955536 236.051590,495.252502 
	C233.113129,482.922943 218.086258,474.806488 202.542496,477.461548 
	C185.768265,480.326813 177.464554,494.243225 177.655548,510.147308 
	C177.886047,529.343018 190.481995,542.195679 208.571426,542.492188 
	C221.372833,542.702087 234.745895,533.977905 235.862854,523.820129 
	C232.416016,522.416748 230.583023,524.048950 228.586700,526.858826 
	C218.417480,541.172180 195.191177,539.303833 187.193481,523.671875 
	C181.124237,511.809204 183.436844,497.688965 193.537277,487.909302 
z"/>
<path fill="#000000" opacity="1.000000" stroke="none" 
	d="
M743.106567,441.113525 
	C788.357300,395.342072 859.252197,398.062164 899.929260,447.396606 
	C917.975098,469.283203 925.774658,494.910797 922.385498,523.303650 
	C916.981812,568.571838 892.074280,598.717102 849.101685,612.782410 
	C790.218201,632.055481 725.609131,592.062500 715.978027,530.832886 
	C710.652771,496.977966 719.250671,466.786652 743.106567,441.113525 
M838.444519,528.004822 
	C836.071411,524.068848 832.928162,520.580750 831.372559,516.455139 
	C831.986206,514.771240 833.294861,514.699463 834.321594,514.260071 
	C843.121277,510.494446 847.577148,503.691406 846.350037,495.831573 
	C844.607727,484.671692 838.797607,478.785645 828.094055,478.273224 
	C818.465027,477.812256 808.803345,478.071198 799.158691,477.879974 
	C795.501404,477.807495 794.235168,479.335052 794.259766,482.960144 
	C794.383057,501.094330 794.315796,519.229797 794.328369,537.364807 
	C794.329712,539.366821 794.090332,541.509827 797.122498,541.633972 
	C800.177917,541.758972 800.679871,539.946167 800.660645,537.474731 
	C800.620483,532.317505 800.884460,527.147949 800.609192,522.005554 
	C800.382202,517.766968 802.132141,516.434631 806.144714,516.639893 
	C810.790955,516.877625 815.465027,516.838745 820.115112,516.639648 
	C823.184509,516.508240 825.020020,517.771790 826.546387,520.321716 
	C830.048035,526.172058 833.927979,531.799438 837.334290,537.702087 
	C839.412781,541.303711 841.961365,542.569702 846.591431,540.888611 
	C843.908691,536.643311 841.371277,532.628052 838.444519,528.004822 
z"/>
<path fill="#000000" opacity="1.000000" stroke="none" 
	d="
M489.320526,717.016602 
	C521.855957,710.608093 551.713806,716.075745 577.333740,736.752380 
	C611.088562,763.994385 624.208923,799.966003 614.383362,842.176270 
	C604.208557,885.886597 575.617065,912.879944 531.446411,921.312622 
	C473.705841,932.335999 419.063141,893.079224 409.843597,835.177002 
	C401.493103,782.732605 433.297882,733.049866 484.604187,718.389893 
	C486.044281,717.978455 487.479279,717.549255 489.320526,717.016602 
M484.718231,799.272217 
	C484.203400,800.315796 483.596283,801.324585 483.187744,802.408264 
	C478.259552,815.482056 479.643860,827.784790 489.078217,838.244141 
	C498.658417,848.864990 510.969025,851.083862 524.217041,846.588623 
	C537.913086,841.941406 544.339050,831.294189 545.550659,817.439941 
	C546.804138,803.106628 537.448792,789.234558 524.156250,784.789856 
	C508.817963,779.661133 494.114014,784.881958 484.718231,799.272217 
z"/>
<path fill="#000000" opacity="1.000000" stroke="none" 
	d="
M487.000061,503.695190 
	C530.653259,503.695526 573.806458,503.698456 616.959656,503.694702 
	C623.821838,503.694092 623.823425,503.680237 623.879333,496.817139 
	C623.905090,493.652100 623.696777,490.465973 623.988281,487.325958 
	C624.797668,478.609863 632.375366,474.904846 639.414917,479.996033 
	C650.752686,488.195892 661.938293,496.613495 673.019958,505.157379 
	C679.121704,509.861755 678.970093,516.303406 672.759766,521.055725 
	C661.781189,529.456909 650.733032,537.771912 639.569092,545.924500 
	C632.521362,551.071167 624.857849,547.532776 624.052124,538.843262 
	C623.699585,535.041626 623.758240,531.176147 623.955811,527.356445 
	C624.160706,523.394470 622.499756,521.844543 618.649170,522.288330 
	C617.498230,522.421021 616.318970,522.306396 615.152649,522.306396 
	C528.846252,522.307983 442.539886,522.310120 356.233490,522.310181 
	C348.687347,522.310181 348.620575,522.303101 348.691711,514.615479 
	C348.806946,502.158386 347.086731,503.736542 359.540039,503.718811 
	C401.859955,503.658539 444.180054,503.695679 487.000061,503.695190 
z"/>
<path fill="#000000" opacity="1.000000" stroke="none" 
	d="
M405.507629,664.759155 
	C408.633636,670.931091 407.973511,677.437927 409.028717,683.617249 
	C410.510010,692.291504 411.354675,701.085327 412.203796,709.853943 
	C413.129395,719.412292 408.550720,723.716187 399.158752,722.175110 
	C386.034119,720.021545 372.954346,717.593811 359.825867,715.465332 
	C355.589569,714.778503 352.782593,712.768311 351.432129,708.706787 
	C350.091888,704.675964 351.728149,701.559814 354.486908,698.818115 
	C358.024384,695.302490 361.601715,691.826965 365.687408,687.818542 
	C359.755768,681.500793 354.034058,675.332336 348.231354,669.241089 
	C334.555664,654.885376 320.918854,640.490784 307.079529,626.294067 
	C304.196259,623.336365 304.632690,621.641174 307.442810,619.084290 
	C317.336761,610.081909 317.290222,609.974243 326.701355,619.791443 
	C342.728058,636.509705 358.730591,653.251099 374.695435,670.028320 
	C376.063141,671.465576 377.073486,673.243042 378.635681,675.393555 
	C383.331390,670.989075 386.922424,667.371765 390.778748,664.063782 
	C396.116882,659.484619 399.969330,659.690125 405.507629,664.759155 
z"/>
<path fill="#000000" opacity="1.000000" stroke="none" 
	d="
M409.046875,320.046448 
	C392.062683,337.911652 375.411163,355.608429 358.482513,373.035980 
	C355.086273,376.532227 354.923676,378.770142 358.698425,381.754944 
	C361.427155,383.912628 363.990265,386.359589 366.273590,388.985138 
	C371.953918,395.516846 369.125061,403.606598 360.587982,405.120636 
	C346.849915,407.557129 333.077393,409.802429 319.307190,412.053528 
	C312.616058,413.147369 307.136688,408.507355 307.820160,401.762085 
	C309.275757,387.397095 310.969482,373.047821 312.987427,358.751648 
	C314.096100,350.897369 322.315918,347.994934 328.537506,353.008057 
	C331.507233,355.401001 334.279572,358.098877 336.826019,360.941101 
	C339.591583,364.027924 341.582550,363.879089 344.450836,360.835236 
	C361.457306,342.787720 378.657349,324.922791 395.762115,306.967712 
	C404.323669,297.980621 402.100983,299.035553 409.912750,306.376373 
	C416.314331,312.392090 416.273438,312.435608 409.046875,320.046448 
z"/>
<path fill="#000000" opacity="1.000000" stroke="none" 
	d="
M626.820679,722.780151 
	C624.429626,725.845886 622.320557,726.304626 619.740417,723.356995 
	C617.665710,720.986877 615.318970,718.818726 612.892090,716.802795 
	C610.205017,714.570862 610.287659,712.807190 612.720520,710.292664 
	C624.871216,697.734253 636.871094,685.029846 648.920349,672.373291 
	C656.357361,664.561523 663.787720,656.743530 671.322266,648.821960 
	C668.302551,644.734558 664.694580,641.798218 661.347961,638.614624 
	C658.195190,635.615417 655.781128,632.320251 657.242126,627.637268 
	C658.682800,623.019104 662.393005,621.439880 666.735901,620.715393 
	C680.003845,618.501892 693.264221,616.243591 706.531677,614.027161 
	C713.408997,612.878174 718.886902,617.633118 718.152649,624.655396 
	C716.667114,638.863220 715.035461,653.064514 713.012756,667.203918 
	C711.856018,675.289917 703.311096,678.003418 697.079712,672.547424 
	C693.212158,669.161133 689.571045,665.516357 685.190247,661.385986 
	C665.705872,681.879944 646.383240,702.203796 626.820679,722.780151 
z"/>
<path fill="#000000" opacity="1.000000" stroke="none" 
	d="
M664.270691,369.714050 
	C647.124695,351.745941 630.290894,333.966187 613.258911,316.378418 
	C610.339783,313.364075 610.174133,311.326874 613.461975,308.787079 
	C615.165039,307.471436 616.605835,305.815125 618.157532,304.304932 
	C623.184143,299.412659 623.098999,299.490906 628.110474,304.764648 
	C645.893616,323.478546 663.788391,342.086700 681.510620,360.857910 
	C684.332825,363.847137 686.380371,364.139069 689.159912,360.977875 
	C691.571167,358.235596 694.347839,355.804382 697.050659,353.331482 
	C700.003540,350.629730 703.493042,349.876740 707.254883,351.236450 
	C710.942566,352.569336 712.677979,355.609406 713.144653,359.274719 
	C714.887207,372.960999 716.604370,386.652130 718.132629,400.363525 
	C719.044861,408.547272 713.676636,413.183105 705.525940,411.776184 
	C692.586914,409.542694 679.631165,407.403900 666.670776,405.297180 
	C662.275146,404.582672 658.703125,402.936646 657.240601,398.321259 
	C655.817871,393.831421 657.959229,390.662018 660.977173,387.706543 
	C664.398926,384.355499 667.704834,380.886108 671.358521,377.165283 
	C669.065857,374.753510 666.790894,372.360413 664.270691,369.714050 
z"/>
<path fill="#000000" opacity="1.000000" stroke="none" 
	d="
M839.539917,493.860626 
	C841.120911,503.416046 836.897095,509.079803 827.859558,510.335022 
	C820.392151,511.372162 812.908630,510.868347 805.427429,510.894379 
	C802.214050,510.905548 800.532959,509.695892 800.637268,506.157867 
	C800.813660,500.170807 800.772888,494.173126 800.653259,488.183289 
	C800.591675,485.101593 801.596985,483.566376 804.927185,483.630493 
	C812.082031,483.768311 819.258667,483.385101 826.393066,483.794556 
	C832.602783,484.150940 837.598145,486.862152 839.539917,493.860626 
z"/>
<path fill="#000000" opacity="1.000000" stroke="none" 
	d="
M504.160370,841.305176 
	C491.831512,836.193726 485.199066,824.948608 486.869812,812.565674 
	C488.732544,798.759888 496.804321,790.896118 510.721924,789.328369 
	C525.953613,787.612488 538.438293,798.630188 539.248718,814.503113 
	C540.047974,830.157471 529.106262,842.208130 513.927246,842.355652 
	C510.776367,842.386230 507.594208,842.596191 504.160370,841.305176 
z"/>
</svg>